# xmcd
#
# Track frame offsets: 
#        150
#        16403
#        33804
#        50033
#        68928
#        88385
#        106125
#        120926
#        139640
#        156408
#        173569
#        192078
#        206457
#        222293
#        238573
#        255197
#
# Disc length: 3664 seconds
#
# Revision: 0
# Processed by: cddbd v1.5.2PL0 Copyright (c) Steve Scherf et al.
# Submitted via: ExactAudioCopyFreeDBPlugin 1.0
#
DISCID=d20e4e10
DTITLE=Gitte Haenning - Die Großen Erfolge
DYEAR=2004
DGENRE=Schlager
TTITLE0=Ungehemmt
TTITLE1=Ich will alles
TTITLE2=Freu dich bloß nicht zu früh
TTITLE3=Ich bin stark
TTITLE4=Und wenn ich dich liebe
TTITLE5=So liebst nur du
TTITLE6=Von Hollywood träumen
TTITLE7=Berührungen
TTITLE8=Jetzt erst recht
TTITLE9=Du tust mir so gut
TTITLE10=Die Frau, die dich liebt
TTITLE11=Lass mich heute nicht allein
TTITLE12=Bye-bye, Bel Ami
TTITLE13=Etwas ist gescheh'n
TTITLE14=Lampenfieber
TTITLE15=Mac Arthur Park (Alle Träume die wir hatten)
EXTD=
EXTT0=
EXTT1=
EXTT2=
EXTT3=
EXTT4=
EXTT5=
EXTT6=
EXTT7=
EXTT8=
EXTT9=
EXTT10=
EXTT11=
EXTT12=
EXTT13=
EXTT14=
EXTT15=
PLAYORDER=
